<mxfile host="Electron" modified="2024-07-15T07:52:14.164Z" agent="Mozilla/5.0 (Windows NT 10.0; Win64; x64) AppleWebKit/537.36 (KHTML, like Gecko) draw.io/24.6.4 Chrome/124.0.6367.207 Electron/30.0.6 Safari/537.36" etag="hQeqq9Bi9u3s126EwBeK" version="24.6.4" type="device">
  <diagram name="Page-1" id="6A1dJ6ub77y1R9eHL8XY">
    <mxGraphModel dx="312" dy="690" grid="1" gridSize="10" guides="1" tooltips="1" connect="1" arrows="1" fold="1" page="1" pageScale="1" pageWidth="850" pageHeight="1100" math="0" shadow="0">
      <root>
        <mxCell id="0" />
        <mxCell id="1" parent="0" />
        <mxCell id="YqYrfdmvWSrcVruwXoND-9" value="&lt;font style=&quot;font-size: 15px;&quot;&gt;IMapFormat&lt;/font&gt;" style="rounded=1;whiteSpace=wrap;html=1;" vertex="1" parent="1">
          <mxGeometry x="98" y="100" width="140" height="50" as="geometry" />
        </mxCell>
        <mxCell id="YqYrfdmvWSrcVruwXoND-11" value="&lt;font style=&quot;font-size: 15px;&quot;&gt;IMapIdentifier&lt;/font&gt;" style="rounded=1;whiteSpace=wrap;html=1;" vertex="1" parent="1">
          <mxGeometry x="308" y="100" width="140" height="50" as="geometry" />
        </mxCell>
        <mxCell id="YqYrfdmvWSrcVruwXoND-19" style="rounded=0;orthogonalLoop=1;jettySize=auto;html=1;exitX=0.25;exitY=0;exitDx=0;exitDy=0;entryX=0.5;entryY=1;entryDx=0;entryDy=0;" edge="1" parent="1" source="YqYrfdmvWSrcVruwXoND-12" target="YqYrfdmvWSrcVruwXoND-9">
          <mxGeometry relative="1" as="geometry" />
        </mxCell>
        <mxCell id="YqYrfdmvWSrcVruwXoND-12" value="&lt;font style=&quot;font-size: 15px;&quot;&gt;IMapRepresentative&lt;/font&gt;" style="rounded=1;whiteSpace=wrap;html=1;" vertex="1" parent="1">
          <mxGeometry x="168" y="190" width="200" height="50" as="geometry" />
        </mxCell>
        <mxCell id="YqYrfdmvWSrcVruwXoND-21" style="rounded=0;orthogonalLoop=1;jettySize=auto;html=1;exitX=0;exitY=0;exitDx=0;exitDy=0;entryX=0.5;entryY=1;entryDx=0;entryDy=0;" edge="1" parent="1" source="YqYrfdmvWSrcVruwXoND-13" target="YqYrfdmvWSrcVruwXoND-12">
          <mxGeometry relative="1" as="geometry" />
        </mxCell>
        <mxCell id="YqYrfdmvWSrcVruwXoND-22" style="rounded=0;orthogonalLoop=1;jettySize=auto;html=1;exitX=0.25;exitY=0;exitDx=0;exitDy=0;entryX=0.5;entryY=1;entryDx=0;entryDy=0;" edge="1" parent="1" source="YqYrfdmvWSrcVruwXoND-13" target="YqYrfdmvWSrcVruwXoND-12">
          <mxGeometry relative="1" as="geometry">
            <mxPoint x="268" y="240" as="targetPoint" />
          </mxGeometry>
        </mxCell>
        <mxCell id="YqYrfdmvWSrcVruwXoND-23" style="rounded=0;orthogonalLoop=1;jettySize=auto;html=1;exitX=0.5;exitY=0;exitDx=0;exitDy=0;entryX=0.5;entryY=1;entryDx=0;entryDy=0;" edge="1" parent="1" source="YqYrfdmvWSrcVruwXoND-13" target="YqYrfdmvWSrcVruwXoND-12">
          <mxGeometry relative="1" as="geometry" />
        </mxCell>
        <mxCell id="YqYrfdmvWSrcVruwXoND-24" style="rounded=0;orthogonalLoop=1;jettySize=auto;html=1;exitX=0.75;exitY=0;exitDx=0;exitDy=0;entryX=0.5;entryY=1;entryDx=0;entryDy=0;" edge="1" parent="1" source="YqYrfdmvWSrcVruwXoND-13" target="YqYrfdmvWSrcVruwXoND-12">
          <mxGeometry relative="1" as="geometry" />
        </mxCell>
        <mxCell id="YqYrfdmvWSrcVruwXoND-25" style="rounded=0;orthogonalLoop=1;jettySize=auto;html=1;exitX=1;exitY=0;exitDx=0;exitDy=0;entryX=0.5;entryY=1;entryDx=0;entryDy=0;" edge="1" parent="1" source="YqYrfdmvWSrcVruwXoND-13" target="YqYrfdmvWSrcVruwXoND-12">
          <mxGeometry relative="1" as="geometry" />
        </mxCell>
        <mxCell id="YqYrfdmvWSrcVruwXoND-26" style="rounded=0;orthogonalLoop=1;jettySize=auto;html=1;exitX=1;exitY=0;exitDx=0;exitDy=0;entryX=0;entryY=0;entryDx=0;entryDy=0;dashed=1;" edge="1" parent="1" source="YqYrfdmvWSrcVruwXoND-13" target="YqYrfdmvWSrcVruwXoND-17">
          <mxGeometry relative="1" as="geometry" />
        </mxCell>
        <mxCell id="YqYrfdmvWSrcVruwXoND-13" value="&lt;i&gt;&lt;font style=&quot;font-size: 15px;&quot;&gt;Triedy implementujúce&amp;nbsp;&lt;/font&gt;&lt;/i&gt;&lt;div&gt;&lt;i&gt;&lt;font style=&quot;font-size: 15px;&quot;&gt;mapových r&lt;/font&gt;&lt;/i&gt;&lt;i style=&quot;background-color: initial;&quot;&gt;&lt;font style=&quot;font-size: 15px;&quot;&gt;eprezentantov&lt;/font&gt;&lt;/i&gt;&lt;/div&gt;" style="rounded=0;whiteSpace=wrap;html=1;" vertex="1" parent="1">
          <mxGeometry x="143" y="310" width="250" height="100" as="geometry" />
        </mxCell>
        <mxCell id="YqYrfdmvWSrcVruwXoND-15" value="&lt;font style=&quot;font-size: 15px;&quot;&gt;IMap&lt;/font&gt;" style="rounded=1;whiteSpace=wrap;html=1;" vertex="1" parent="1">
          <mxGeometry x="535" y="70" width="140" height="50" as="geometry" />
        </mxCell>
        <mxCell id="YqYrfdmvWSrcVruwXoND-45" style="rounded=0;orthogonalLoop=1;jettySize=auto;html=1;exitX=0.25;exitY=0;exitDx=0;exitDy=0;entryX=0.5;entryY=1;entryDx=0;entryDy=0;" edge="1" parent="1" source="YqYrfdmvWSrcVruwXoND-16" target="YqYrfdmvWSrcVruwXoND-15">
          <mxGeometry relative="1" as="geometry" />
        </mxCell>
        <mxCell id="YqYrfdmvWSrcVruwXoND-46" style="rounded=0;orthogonalLoop=1;jettySize=auto;html=1;exitX=0.75;exitY=0;exitDx=0;exitDy=0;entryX=0.5;entryY=1;entryDx=0;entryDy=0;" edge="1" parent="1" source="YqYrfdmvWSrcVruwXoND-16" target="YqYrfdmvWSrcVruwXoND-15">
          <mxGeometry relative="1" as="geometry">
            <mxPoint x="645" y="140" as="targetPoint" />
          </mxGeometry>
        </mxCell>
        <mxCell id="YqYrfdmvWSrcVruwXoND-48" style="rounded=0;orthogonalLoop=1;jettySize=auto;html=1;exitX=0.5;exitY=0;exitDx=0;exitDy=0;entryX=0.5;entryY=1;entryDx=0;entryDy=0;" edge="1" parent="1" source="YqYrfdmvWSrcVruwXoND-16" target="YqYrfdmvWSrcVruwXoND-15">
          <mxGeometry relative="1" as="geometry" />
        </mxCell>
        <mxCell id="YqYrfdmvWSrcVruwXoND-16" value="&lt;font style=&quot;font-size: 15px;&quot;&gt;&lt;i&gt;Rozhrania&lt;/i&gt;&lt;/font&gt;&lt;i style=&quot;font-size: 15px; background-color: initial;&quot;&gt;&amp;nbsp;definujúce&amp;nbsp;&lt;/i&gt;&lt;div&gt;&lt;div&gt;&lt;font style=&quot;font-size: 15px;&quot;&gt;&lt;i&gt;geolokáciu máp&lt;/i&gt;&lt;/font&gt;&lt;/div&gt;&lt;/div&gt;" style="rounded=1;whiteSpace=wrap;html=1;" vertex="1" parent="1">
          <mxGeometry x="490" y="165" width="230" height="100" as="geometry" />
        </mxCell>
        <mxCell id="YqYrfdmvWSrcVruwXoND-36" style="rounded=0;orthogonalLoop=1;jettySize=auto;html=1;exitX=0.75;exitY=0;exitDx=0;exitDy=0;entryX=0.5;entryY=1;entryDx=0;entryDy=0;" edge="1" parent="1" source="YqYrfdmvWSrcVruwXoND-17" target="YqYrfdmvWSrcVruwXoND-15">
          <mxGeometry relative="1" as="geometry" />
        </mxCell>
        <mxCell id="YqYrfdmvWSrcVruwXoND-37" style="rounded=0;orthogonalLoop=1;jettySize=auto;html=1;exitX=0.25;exitY=0;exitDx=0;exitDy=0;entryX=0.75;entryY=1;entryDx=0;entryDy=0;" edge="1" parent="1" source="YqYrfdmvWSrcVruwXoND-17" target="YqYrfdmvWSrcVruwXoND-16">
          <mxGeometry relative="1" as="geometry" />
        </mxCell>
        <mxCell id="YqYrfdmvWSrcVruwXoND-38" style="rounded=0;orthogonalLoop=1;jettySize=auto;html=1;exitX=0.75;exitY=0;exitDx=0;exitDy=0;entryX=0.5;entryY=1;entryDx=0;entryDy=0;" edge="1" parent="1" source="YqYrfdmvWSrcVruwXoND-17" target="YqYrfdmvWSrcVruwXoND-16">
          <mxGeometry relative="1" as="geometry" />
        </mxCell>
        <mxCell id="YqYrfdmvWSrcVruwXoND-39" style="rounded=0;orthogonalLoop=1;jettySize=auto;html=1;exitX=1;exitY=0;exitDx=0;exitDy=0;entryX=0.25;entryY=1;entryDx=0;entryDy=0;" edge="1" parent="1" source="YqYrfdmvWSrcVruwXoND-17" target="YqYrfdmvWSrcVruwXoND-16">
          <mxGeometry relative="1" as="geometry" />
        </mxCell>
        <mxCell id="YqYrfdmvWSrcVruwXoND-40" style="rounded=0;orthogonalLoop=1;jettySize=auto;html=1;exitX=0;exitY=0;exitDx=0;exitDy=0;entryX=0.25;entryY=1;entryDx=0;entryDy=0;" edge="1" parent="1" source="YqYrfdmvWSrcVruwXoND-17" target="YqYrfdmvWSrcVruwXoND-16">
          <mxGeometry relative="1" as="geometry" />
        </mxCell>
        <mxCell id="YqYrfdmvWSrcVruwXoND-41" style="rounded=0;orthogonalLoop=1;jettySize=auto;html=1;exitX=0.5;exitY=0;exitDx=0;exitDy=0;entryX=0.25;entryY=1;entryDx=0;entryDy=0;" edge="1" parent="1" source="YqYrfdmvWSrcVruwXoND-17" target="YqYrfdmvWSrcVruwXoND-16">
          <mxGeometry relative="1" as="geometry" />
        </mxCell>
        <mxCell id="YqYrfdmvWSrcVruwXoND-42" style="rounded=0;orthogonalLoop=1;jettySize=auto;html=1;exitX=0.75;exitY=0;exitDx=0;exitDy=0;entryX=0.75;entryY=1;entryDx=0;entryDy=0;" edge="1" parent="1" source="YqYrfdmvWSrcVruwXoND-17" target="YqYrfdmvWSrcVruwXoND-16">
          <mxGeometry relative="1" as="geometry" />
        </mxCell>
        <mxCell id="YqYrfdmvWSrcVruwXoND-43" style="rounded=0;orthogonalLoop=1;jettySize=auto;html=1;exitX=0.25;exitY=0;exitDx=0;exitDy=0;entryX=0.25;entryY=1;entryDx=0;entryDy=0;" edge="1" parent="1" source="YqYrfdmvWSrcVruwXoND-17" target="YqYrfdmvWSrcVruwXoND-16">
          <mxGeometry relative="1" as="geometry" />
        </mxCell>
        <mxCell id="YqYrfdmvWSrcVruwXoND-53" style="rounded=0;orthogonalLoop=1;jettySize=auto;html=1;exitX=1;exitY=0;exitDx=0;exitDy=0;entryX=0.5;entryY=1;entryDx=0;entryDy=0;" edge="1" parent="1" source="YqYrfdmvWSrcVruwXoND-17" target="YqYrfdmvWSrcVruwXoND-15">
          <mxGeometry relative="1" as="geometry" />
        </mxCell>
        <mxCell id="YqYrfdmvWSrcVruwXoND-54" style="rounded=0;orthogonalLoop=1;jettySize=auto;html=1;exitX=0.5;exitY=0;exitDx=0;exitDy=0;entryX=0.5;entryY=1;entryDx=0;entryDy=0;" edge="1" parent="1" source="YqYrfdmvWSrcVruwXoND-17" target="YqYrfdmvWSrcVruwXoND-16">
          <mxGeometry relative="1" as="geometry" />
        </mxCell>
        <mxCell id="YqYrfdmvWSrcVruwXoND-17" value="&lt;i&gt;&lt;font style=&quot;font-size: 15px;&quot;&gt;Triedy implementujúce&amp;nbsp;&lt;/font&gt;&lt;/i&gt;&lt;div&gt;&lt;i&gt;&lt;font style=&quot;font-size: 15px;&quot;&gt;mapy&lt;/font&gt;&lt;/i&gt;&lt;/div&gt;" style="rounded=0;whiteSpace=wrap;html=1;" vertex="1" parent="1">
          <mxGeometry x="480" y="310" width="250" height="100" as="geometry" />
        </mxCell>
        <mxCell id="YqYrfdmvWSrcVruwXoND-20" style="rounded=0;orthogonalLoop=1;jettySize=auto;html=1;exitX=0.75;exitY=0;exitDx=0;exitDy=0;entryX=0.5;entryY=1;entryDx=0;entryDy=0;" edge="1" parent="1" source="YqYrfdmvWSrcVruwXoND-12" target="YqYrfdmvWSrcVruwXoND-11">
          <mxGeometry relative="1" as="geometry">
            <mxPoint x="228" y="200" as="sourcePoint" />
            <mxPoint x="178" y="160" as="targetPoint" />
          </mxGeometry>
        </mxCell>
        <mxCell id="YqYrfdmvWSrcVruwXoND-31" style="rounded=0;orthogonalLoop=1;jettySize=auto;html=1;exitX=1;exitY=0.25;exitDx=0;exitDy=0;entryX=0;entryY=0.25;entryDx=0;entryDy=0;dashed=1;" edge="1" parent="1" source="YqYrfdmvWSrcVruwXoND-13" target="YqYrfdmvWSrcVruwXoND-17">
          <mxGeometry relative="1" as="geometry">
            <mxPoint x="408" y="340" as="sourcePoint" />
            <mxPoint x="518" y="340" as="targetPoint" />
          </mxGeometry>
        </mxCell>
        <mxCell id="YqYrfdmvWSrcVruwXoND-32" style="rounded=0;orthogonalLoop=1;jettySize=auto;html=1;exitX=1;exitY=0.5;exitDx=0;exitDy=0;entryX=0;entryY=0.5;entryDx=0;entryDy=0;dashed=1;" edge="1" parent="1" source="YqYrfdmvWSrcVruwXoND-13" target="YqYrfdmvWSrcVruwXoND-17">
          <mxGeometry relative="1" as="geometry">
            <mxPoint x="408" y="359.44" as="sourcePoint" />
            <mxPoint x="518" y="359.44" as="targetPoint" />
          </mxGeometry>
        </mxCell>
        <mxCell id="YqYrfdmvWSrcVruwXoND-33" style="rounded=0;orthogonalLoop=1;jettySize=auto;html=1;exitX=1;exitY=0.75;exitDx=0;exitDy=0;entryX=0;entryY=0.75;entryDx=0;entryDy=0;dashed=1;" edge="1" parent="1" source="YqYrfdmvWSrcVruwXoND-13" target="YqYrfdmvWSrcVruwXoND-17">
          <mxGeometry relative="1" as="geometry">
            <mxPoint x="393" y="380" as="sourcePoint" />
            <mxPoint x="503" y="380" as="targetPoint" />
          </mxGeometry>
        </mxCell>
        <mxCell id="YqYrfdmvWSrcVruwXoND-34" style="rounded=0;orthogonalLoop=1;jettySize=auto;html=1;exitX=1;exitY=1;exitDx=0;exitDy=0;entryX=0;entryY=1;entryDx=0;entryDy=0;dashed=1;" edge="1" parent="1" source="YqYrfdmvWSrcVruwXoND-13" target="YqYrfdmvWSrcVruwXoND-17">
          <mxGeometry relative="1" as="geometry">
            <mxPoint x="393" y="410" as="sourcePoint" />
            <mxPoint x="503" y="410" as="targetPoint" />
          </mxGeometry>
        </mxCell>
        <mxCell id="YqYrfdmvWSrcVruwXoND-49" style="rounded=0;orthogonalLoop=1;jettySize=auto;html=1;exitX=1;exitY=0;exitDx=0;exitDy=0;dashed=1;" edge="1" parent="1">
          <mxGeometry relative="1" as="geometry">
            <mxPoint x="320" y="50" as="sourcePoint" />
            <mxPoint x="480" y="50" as="targetPoint" />
          </mxGeometry>
        </mxCell>
        <mxCell id="YqYrfdmvWSrcVruwXoND-52" value="&lt;font style=&quot;font-size: 13px;&quot;&gt;Reprezentuje&lt;/font&gt;" style="edgeLabel;html=1;align=center;verticalAlign=middle;resizable=0;points=[];" vertex="1" connectable="0" parent="YqYrfdmvWSrcVruwXoND-49">
          <mxGeometry x="-0.1209" y="1" relative="1" as="geometry">
            <mxPoint x="10" y="-19" as="offset" />
          </mxGeometry>
        </mxCell>
        <mxCell id="YqYrfdmvWSrcVruwXoND-50" style="rounded=0;orthogonalLoop=1;jettySize=auto;html=1;" edge="1" parent="1">
          <mxGeometry relative="1" as="geometry">
            <mxPoint x="120" y="50" as="sourcePoint" />
            <mxPoint x="280" y="50" as="targetPoint" />
          </mxGeometry>
        </mxCell>
        <mxCell id="YqYrfdmvWSrcVruwXoND-51" value="&lt;font style=&quot;font-size: 13px;&quot;&gt;Dedí / Implementuje&lt;/font&gt;" style="edgeLabel;html=1;align=center;verticalAlign=middle;resizable=0;points=[];" vertex="1" connectable="0" parent="YqYrfdmvWSrcVruwXoND-50">
          <mxGeometry x="-0.3827" y="2" relative="1" as="geometry">
            <mxPoint x="28" y="-18" as="offset" />
          </mxGeometry>
        </mxCell>
      </root>
    </mxGraphModel>
  </diagram>
</mxfile>
